<svg xmlns="http://www.w3.org/2000/svg" width="35.896" height="35.922" viewBox="0 0 35.896 35.922">
  <path id="instagram" d="M26.977.039H9.023A8.967,8.967,0,0,0,.052,8.98V27.02a8.967,8.967,0,0,0,8.971,8.941H26.977a8.967,8.967,0,0,0,8.971-8.941V8.98A8.965,8.965,0,0,0,26.977.04Zm5.648,26.98a5.645,5.645,0,0,1-5.648,5.629H9.023a5.645,5.645,0,0,1-5.648-5.629V15.369h7.1a8.423,8.423,0,0,0-.81,3.608,8.521,8.521,0,0,0,17.042,0,8.408,8.408,0,0,0-.81-3.608h6.73V27.02ZM14.646,18.976A3.537,3.537,0,1,1,18.183,22.5a3.535,3.535,0,0,1-3.537-3.525Zm17.979-6.919h-9.51a8.515,8.515,0,0,0-9.862,0H3.375V8.98A5.645,5.645,0,0,1,9.023,3.351H26.977A5.644,5.644,0,0,1,32.625,8.98v3.077Zm-3.6-6.7h-3.08a1,1,0,0,0-1,.993v3.07a1,1,0,0,0,1,.993h3.08a1,1,0,0,0,1-.993V6.352A1,1,0,0,0,29.025,5.359Z" transform="translate(-0.052 -0.039)" fill="#f388c8"/>
</svg>
