<svg xmlns="http://www.w3.org/2000/svg" width="35.584" height="24.833" viewBox="0 0 35.584 24.833">
  <path id="youtube-play" d="M35.167,8.917a40.6,40.6,0,0,1,.417,5.75v2.667l-.417,5.75a6.016,6.016,0,0,1-1.417,3.5,6.014,6.014,0,0,1-3.5,1.5q-2.25.167-5.375.25t-5.125.083h-2q-9.25-.083-12.083-.333L5,28l-1.083-.167-1.042-.417-1.083-.833L.959,25.209.5,23.667l-.167-.583A50.67,50.67,0,0,1,0,17.334V14.667l.333-5.75a6.016,6.016,0,0,1,1.417-3.5,5.5,5.5,0,0,1,3.583-1.5q2.25-.167,5.333-.25t5.083-.083h2q7.5,0,12.5.333a5.393,5.393,0,0,1,3.5,1.5,3.432,3.432,0,0,1,.583.792,6.759,6.759,0,0,1,.417.917A5.959,5.959,0,0,1,35,8a5.618,5.618,0,0,0,.167.667v.25ZM22.584,16.25l1.167-.583-9.583-5v10Z" transform="translate(0 -3.584)" fill="#f39a88"/>
</svg>
